<?xml version="1.0" encoding="utf-8"?><svg version="1.1" id="Layer_1" xmlns="http://www.w3.org/2000/svg" xmlns:xlink="http://www.w3.org/1999/xlink" x="0px" y="0px" viewBox="0 0 95.81 122.88" style="enable-background:new 0 0 95.81 122.88" xml:space="preserve"><style type="text/css">.st0{fill-rule:evenodd;clip-rule:evenodd;}</style><g><path class="st0" d="M5.2,74.42h1.24c0.02-0.07,0.04-0.13,0.06-0.2c0.17-0.59,0.37-1.16,0.6-1.68c0.25-0.58,0.54-1.15,0.88-1.7 c0.66-1.09,1.48-2.07,2.42-2.87c0.59-0.5,1.23-0.93,1.92-1.28c0.09-1.37,0.35-2.65,0.75-3.82c0.12-0.36,0.26-0.71,0.41-1.06h-3.07 L5.2,74.42L5.2,74.42z M89.37,74.42h1.39l-4.59-12.61h-3.84c0.15,0.34,0.29,0.7,0.41,1.06c0.4,1.17,0.66,2.44,0.75,3.82 c0.69,0.35,1.33,0.78,1.92,1.28c0.94,0.8,1.76,1.78,2.42,2.87c0.34,0.55,0.63,1.12,0.88,1.7c0.25,0.57,0.46,1.19,0.64,1.84 L89.37,74.42L89.37,74.42z M94.85,74.83c0.58,0.41,0.96,1.09,0.96,1.85v43.17c0,0.84-0.34,1.6-0.89,2.14 c-0.55,0.55-1.31,0.89-2.14,0.89H3.03c-0.84,0-1.6-0.34-2.14-0.89C0.34,121.44,0,120.68,0,119.85V76.68c0-0.8,0.42-1.5,1.05-1.91 l6.19-14.96L0.79,33.44c-0.05-0.21-0.06-0.42-0.04-0.62C1,30.29,1.58,28.1,2.48,26.14c0.9-1.97,2.1-3.68,3.58-5.21 c1.3-1.35,14.24-7.66,25.41-13.11c6.88-3.36,13.09-6.39,15.27-7.59c0.61-0.33,1.33-0.29,1.88,0.05c3.26,1.83,13.54,6.72,23,11.22 c9.33,4.44,17.88,8.5,18.66,9.24c1.79,1.68,3.12,3.5,3.93,5.56c0.81,2.07,1.09,4.35,0.76,6.93l-0.02,0.14l-5.55,26.46L94.85,74.83 L94.85,74.83z M56.65,76.16h-17.9v10.46c0,4.92,4.03,8.95,8.95,8.95l0,0c4.92,0,8.95-4.03,8.95-8.95V76.16L56.65,76.16z M32.75,55.16c0.24-0.16,0.48-0.31,0.73-0.45c0.67-0.38,1.4-0.68,2.16-0.9c0.81-0.23,1.67-0.36,2.56-0.39 c0.84-0.02,1.7,0.06,2.54,0.26l0.03,0.01l0-0.01c4.24,1.08,6.51,1.9,7.73,2.45c1.19-0.78,3.19-1.65,6.56-2.45l0.17-0.03 c0.79-0.17,1.58-0.25,2.37-0.22c0.89,0.02,1.76,0.16,2.56,0.39c0.76,0.22,1.49,0.52,2.16,0.9c0.25,0.14,0.5,0.29,0.73,0.45 c0.93-0.48,1.92-0.84,2.93-1.09c1.52-0.38,3.1-0.51,4.6-0.4c0.91,0.06,1.82,0.22,2.7,0.46c0.86,0.23,1.72,0.56,2.57,0.97 c0.86,0.42,1.67,0.92,2.41,1.49c0.57,0.45,1.13,0.96,1.65,1.53h6.05l5.34-25.43c0.23-1.89,0.03-3.54-0.55-5.02 c-0.6-1.52-1.62-2.9-3.01-4.21c-0.35-0.33-8.65-4.28-17.71-8.58c-8.83-4.2-18.37-8.74-22.41-10.89c-2.79,1.47-8.39,4.2-14.53,7.19 C22.19,16.47,9.55,22.64,8.72,23.5c-1.2,1.24-2.17,2.61-2.88,4.18c-0.69,1.51-1.15,3.22-1.37,5.2l6.16,25.23h5.27 c0.52-0.57,1.07-1.08,1.65-1.53c0.74-0.57,1.54-1.07,2.41-1.49c0.84-0.41,1.7-0.74,2.57-0.97c0.88-0.24,1.79-0.39,2.7-0.46 c1.5-0.11,3.08,0.03,4.6,0.4C30.83,54.32,31.82,54.68,32.75,55.16L32.75,55.16z M35.3,57.94c-0.38,0.21-0.72,0.45-1.01,0.72 l-0.05,0.05l0,0l-0.03,0.02c-0.61,0.59-1.58,0.7-2.31,0.2c-0.88-0.59-1.89-1.01-2.96-1.27c-1.14-0.28-2.33-0.38-3.46-0.3 c-0.67,0.05-1.35,0.16-2.01,0.34c-0.67,0.18-1.31,0.42-1.9,0.71c-0.6,0.29-1.19,0.66-1.76,1.1c-0.55,0.43-1.05,0.9-1.47,1.41 c-0.75,0.89-1.35,1.94-1.77,3.15c-0.38,1.12-0.6,2.37-0.6,3.74c0.06,0.82-0.44,1.6-1.25,1.88c-0.7,0.24-1.35,0.62-1.93,1.12 c-0.64,0.54-1.19,1.21-1.65,1.97l-0.15,0.25h73.83l-0.15-0.25c-0.46-0.76-1.02-1.43-1.65-1.97c-0.58-0.49-1.23-0.88-1.93-1.12 c-0.73-0.25-1.26-0.95-1.25-1.76c0.01-1.42-0.2-2.71-0.6-3.86c-0.41-1.21-1.02-2.26-1.77-3.15c-0.43-0.51-0.92-0.98-1.47-1.41 c-0.57-0.44-1.16-0.81-1.76-1.1c-0.59-0.29-1.23-0.53-1.9-0.71c-0.66-0.18-1.33-0.29-2.01-0.34c-1.13-0.08-2.32,0.02-3.46,0.3 c-1.02,0.25-2,0.65-2.85,1.2c-0.73,0.57-1.78,0.52-2.45-0.15l0,0c-0.3-0.29-0.66-0.55-1.06-0.77c-0.42-0.23-0.88-0.43-1.36-0.56 c-0.54-0.15-1.09-0.24-1.64-0.26c-0.49-0.01-0.98,0.03-1.45,0.13l-0.14,0.04c-1.81,0.43-7.09,2.87-7.27,2.87 c-0.54,0-0.82-0.14-1.15-0.4l-0.06-0.05c-0.1-0.08-0.84-0.71-7.58-2.42l0-0.01c-0.51-0.12-1.04-0.17-1.57-0.16 c-0.54,0.01-1.1,0.1-1.64,0.26C36.18,57.51,35.72,57.7,35.3,57.94L35.3,57.94z M25.38,29.9h-0.29c0,2.35-0.88,4.4-2.63,6.16 c-1.76,1.76-3.81,2.63-6.16,2.63v0.29c2.35,0,4.4,0.88,6.16,2.64c1.76,1.76,2.63,3.81,2.63,6.15h0.29c0-2.35,0.88-4.4,2.63-6.16 c1.76-1.76,3.81-2.63,6.16-2.63V38.7c-2.35,0-4.4-0.88-6.16-2.63C26.25,34.31,25.38,32.25,25.38,29.9L25.38,29.9L25.38,29.9z M60.84,18.95h-0.13c0,1.08-0.4,2.02-1.21,2.82c-0.81,0.81-1.75,1.21-2.82,1.21v0.13c1.08,0,2.02,0.4,2.82,1.21 c0.32,0.32,1.3,2.82,1.34,2.82c0-1.08,0.4-2.02,1.21-2.82c0.81-0.81,1.75-1.21,2.82-1.21v-0.13c-1.08,0-2.02-0.4-2.82-1.21 C61.25,20.97,60.84,20.03,60.84,18.95L60.84,18.95L60.84,18.95z M69.58,29.9H69.3c0,2.35-0.88,4.4-2.63,6.16 c-1.76,1.76-3.81,2.63-6.16,2.63v0.29c2.35,0,4.4,0.88,6.16,2.64c1.76,1.76,2.63,3.81,2.63,6.15h0.29c0-2.35,0.88-4.4,2.63-6.16 c1.76-1.76,3.81-2.63,6.16-2.63V38.7c-2.35,0-4.4-0.88-6.16-2.63C70.46,34.31,69.58,32.25,69.58,29.9L69.58,29.9L69.58,29.9z M37.07,18.31h-0.13c0,1.08-0.4,2.02-1.21,2.82c-0.81,0.81-1.75,1.21-2.82,1.21v0.13c1.08,0,2.02,0.4,2.82,1.21 c0.81,0.81,1.21,1.75,1.21,2.82h0.13c0-1.08,0.4-2.02,1.21-2.82c0.81-0.81,1.75-1.21,2.82-1.21v-0.13c-1.08,0-2.02-0.4-2.82-1.21 C37.47,20.33,37.07,19.38,37.07,18.31L37.07,18.31L37.07,18.31z M46.5,27.86h-0.24c0,1.97-0.74,3.69-2.21,5.17 c-1.47,1.47-3.2,2.21-5.17,2.21v0.24c1.97,0,3.69,0.74,5.17,2.21c1.47,1.48,2.21,3.2,2.21,5.16h0.24c0-1.97,0.74-3.69,2.21-5.17 c1.47-1.47,3.2-2.21,5.17-2.21v-0.24c-1.97,0-3.69-0.74-5.17-2.21C47.24,31.56,46.5,29.84,46.5,27.86L46.5,27.86L46.5,27.86z M44.68,82.94h6.04v3.35c0,1.66-1.36,3.02-3.02,3.02l0,0c-1.66,0-3.02-1.36-3.02-3.02V82.94L44.68,82.94z M80.95,119.59h10.8 c0.43,0,0.77-0.35,0.77-0.77V108.3c-0.13,0-0.25-0.01-0.38-0.01c-6.18,0-11.19,5.01-11.19,11.19 C80.95,119.52,80.95,119.55,80.95,119.59L80.95,119.59z M14.86,119.59H4.07c-0.43,0-0.77-0.35-0.77-0.77V108.3 c0.13,0,0.25-0.01,0.38-0.01c6.18,0,11.19,5.01,11.19,11.19C14.86,119.52,14.86,119.55,14.86,119.59L14.86,119.59z"/></g></svg>